<svg xmlns="http://www.w3.org/2000/svg" xmlns:svg="http://www.w3.org/2000/svg" id="svg2" width="210mm" height="297mm" version="1.1" viewBox="0 0 744.094 1052.362"><metadata id="metadata7"/><g id="layer1"><g id="g8249" transform="translate(2602.153,-105.05586)"><path id="path8218" d="m -2346.9719,459.6723 a 114.15099,114.15099 0 0 0 -48.7493,11.06332 68.760249,68.760249 0 0 0 -16.416,-2.07502 68.760249,68.760249 0 0 0 -68.7591,68.76085 68.760249,68.760249 0 0 0 1.4911,13.8752 81.793235,81.793235 0 0 0 -44.6356,72.86224 81.793235,81.793235 0 0 0 75.8531,81.49601 93.477978,93.477978 0 0 0 92.2274,78.49469 93.477978,93.477978 0 0 0 50.9598,-15.14386 123.13927,123.13927 0 0 0 84.7632,34.01896 123.13927,123.13927 0 0 0 43.0055,-7.83089 62.468462,62.468462 0 0 0 30.2495,7.83089 62.468462,62.468462 0 0 0 59.0097,-42.18177 77.299098,77.299098 0 0 0 19.6362,2.63289 77.299098,77.299098 0 0 0 56.1543,-24.31463 41.346032,41.346032 0 0 0 40.0215,-41.29891 41.346032,41.346032 0 0 0 -12.8776,-29.91583 58.423736,58.423736 0 0 0 4.7878,-23.1155 58.423736,58.423736 0 0 0 -0.1112,-3.12644 42.244857,42.244857 0 0 0 28.8732,-40.01636 42.244857,42.244857 0 0 0 -42.2444,-42.24606 42.244857,42.244857 0 0 0 -25.2844,8.45652 37.301309,37.301309 0 0 0 -28.1953,-12.95067 37.301309,37.301309 0 0 0 -16.621,3.92587 71.906139,71.906139 0 0 0 -5.0381,-11.87491 53.030778,53.030778 0 0 0 8.625,-28.90264 53.030778,53.030778 0 0 0 -53.0295,-53.02958 53.030778,53.030778 0 0 0 -53.0175,52.73935 71.906139,71.906139 0 0 0 -3.0882,1.7709 64.715523,64.715523 0 0 0 -62.541,-48.21914 64.715523,64.715523 0 0 0 -41.5161,15.15603 114.15099,114.15099 0 0 0 -73.533,-26.84151 z" style="opacity:1;fill:#fff;fill-opacity:1;stroke:#5fbcd3;stroke-width:10;stroke-linecap:round;stroke-linejoin:round;stroke-miterlimit:4;stroke-dasharray:none;stroke-dashoffset:0;stroke-opacity:1"/><g style="fill:#5fbcd3" id="g8205" transform="translate(91.673952,-6.947971)"><text style="font-style:normal;font-weight:400;font-size:40px;line-height:125%;font-family:sans-serif;letter-spacing:0;word-spacing:0;fill:#5fbcd3;fill-opacity:1;stroke:none;stroke-width:1px;stroke-linecap:butt;stroke-linejoin:miter;stroke-opacity:1" id="text4136" x="-2548.571" y="672.362" xml:space="preserve"><tspan style="font-style:normal;font-variant:normal;font-weight:700;font-stretch:normal;font-size:90px;font-family:'Code Bold';-inkscape-font-specification:'Code Bold, Bold';fill:#5fbcd3" id="tspan4211" x="-2548.571" y="672.362">Bo<tspan style="font-size:180px;fill:#5fbcd3" id="tspan4223">na</tspan>r</tspan></text><text style="font-style:normal;font-weight:400;font-size:50px;line-height:125%;font-family:sans-serif;letter-spacing:0;word-spacing:0;fill:#5fbcd3;fill-opacity:1;stroke:none;stroke-width:1px;stroke-linecap:butt;stroke-linejoin:miter;stroke-opacity:1" id="text4215" x="-2228.567" y="589.386" xml:space="preserve"><tspan id="tspan4217" x="-2228.567" y="589.386" style="font-style:normal;font-variant:normal;font-weight:700;font-stretch:normal;font-size:50px;font-family:'Code Bold';-inkscape-font-specification:'Code Bold, Bold';fill:#5fbcd3">ga</tspan></text><text style="font-style:normal;font-variant:normal;font-weight:700;font-stretch:normal;font-size:50px;line-height:125%;font-family:'Code Bold';-inkscape-font-specification:'Code Bold, Bold';letter-spacing:0;word-spacing:0;fill:#5fbcd3;fill-opacity:1;stroke:none;stroke-width:1px;stroke-linecap:butt;stroke-linejoin:miter;stroke-opacity:1" id="text8173" x="-2530.127" y="589.211" xml:space="preserve"><tspan id="tspan8175" x="-2530.127" y="589.211">THE</tspan></text><text style="font-style:normal;font-variant:normal;font-weight:700;font-stretch:normal;font-size:51.49533463px;line-height:125%;font-family:'Code Bold';-inkscape-font-specification:'Code Bold, Bold';letter-spacing:0;word-spacing:0;fill:#5fbcd3;fill-opacity:1;stroke:none;stroke-width:1px;stroke-linecap:butt;stroke-linejoin:miter;stroke-opacity:1" id="text8173-1" x="-2510.706" y="728.53" xml:space="preserve"><tspan id="tspan8175-8" x="-2510.706" y="728.53">p r o j e c t</tspan></text></g></g></g></svg>